# xmcd CD database file
#
# Track frame offsets:
#	150
#	13915
#	35720
#	56702
#	66850
#	82902
#	100542
#	122625
#	143940
#	162570
#	180035
#	195365
#	214205
#	229657
#	244750
#	264985
#	275042
#	292795
#	310820
#
# Disc length: 4389 seconds
#
# Revision: 0
# Processed by: cddbd v1.5PL3 Copyright (c) Steve Scherf et al.
# Submitted via: CDex 1.51
#
DISCID=08112313
DTITLE=NOW - NOW TV3
DYEAR=1999
DGENRE=Top 40
TTITLE0=伝説のチャンピオン/クイーン（大正製薬 リポビタンD TV・CMイメージ曲）
TTITLE1=HEY BOY HEY GIRL/ケミカル・ブラザーズ(SONY MD WALKMAN TVCMソング)
TTITLE2=カンタループ/US 3(SONY MD WALKMAN TVCMソング)
TTITLE3=ジョージー・ガール/シーカーズ(HONDA VAMOS TV-CF曲)
TTITLE4=ウォーム・プリーゼス/アンドリュー・ゴールド(バドワイザー・ファイン モルト CM曲)
TTITLE5=ユー・アー・ジ・ワン・フォー・ミー/ザ・バブラーズ(日本生命保険相互会社 企業 TV-CF曲)
TTITLE6=世紀を越えて(ビヨンド・ザ・センチュリー)/アディエマス(NHKスペシャル「世紀を越えて」テーマ・ソング)
TTITLE7=オーディナリーワールド/デュラン・デュラン(トヨタ・レジアス・TVCF曲)
TTITLE8=アメイジング・グレイス/ヌーノ(積水ハウス企業CFソング)
TTITLE9=ペイン・イン・マイ・ハート/カリーナ(日本テレビ系「CD GROOVE XXX」オープニング・テーマ)
TTITLE10=キャラヴァン/ブリジット・フォンデーヌ(HONDA AVANCIER TV-CFソング)
TTITLE11=ア・コージー・プレイス/アンドリュー・ゴールド(NTTコミュニケーションズ '99 CM曲)
TTITLE12=リトル・グリーン・バッグ/ジージ・ベイカー(サントリー・リザーブ 10年<シェリー樽仕上げ>TVCF曲)
TTITLE13=レディ・スターダスト/デヴィッド・ボウイ(ドコモ「衛星移動通信サービス」CFソング)
TTITLE14=嵐が丘/ケイト・ブッシュ(日本テレビ系「恋のから騒ぎ」オープニング・テーマ)
TTITLE15=アイ・ゲット・アラウンド/ビーチ・ボーイズ(HONDA JULIO TVCFソング)
TTITLE16=パワー・オブ・ラヴ/ヒューイ・ルイス・アンド・ザ・ニュース(アサヒ スーパードライスタイニーTVCF曲)
TTITLE17=WONDA/MM(アサヒ飲料 WONDA CMソング)
TTITLE18=ソング・フォー・ユー/レオン・ラッセル(三菱自動車 レグナム TVCF曲)
EXTD=YEAR: 1999
EXTT0=
EXTT1=
EXTT2=
EXTT3=
EXTT4=
EXTT5=
EXTT6=
EXTT7=
EXTT8=
EXTT9=
EXTT10=
EXTT11=
EXTT12=
EXTT13=
EXTT14=
EXTT15=
EXTT16=
EXTT17=
EXTT18=
PLAYORDER=
